<svg xmlns="http://www.w3.org/2000/svg" version="1.1" xmlns:xlink="http://www.w3.org/1999/xlink" xmlns:svgjs="http://svgjs.dev/svgjs" width="100%" height="100%" viewBox="0 0 1000 600"><rect width="1000" height="600" x="0" y="0" fill="#141a46"/><g><circle r="166.66666666666666" cx="384.00878397623694" cy="406.23102659185724" fill="#fe1381" transform="matrix(0.5751301157000037,0,0,0.5751301157000037,0,66.36430826885955)"/><path d="M322.2311193425089 481.2310304646941L322.2311193425089 481.2310304646941Q304.248748848494 481.2310304646941 293.05384172722006 475.5013535916011Q281.8295516476225 469.8010596768317 281.8295516476225 460.69234259653L281.8295516476225 460.69234259653Q281.8295516476225 453.7285814738478 282.88733814727044 450.76090268316887Q283.9451246469184 447.79322389248995 286.50144202106753 447.79322389248995L286.50144202106753 447.79322389248995Q288.1762706455101 447.79322389248995 291.79037451930725 450.32015830831557Q295.3750954347808 452.87647568246473 300.54649609972626 456.0498351814085Q305.74727972299524 459.2231946803523 312.1821475958535 461.75012909617794Q318.64639842703536 464.30644647032716 326.25658463283577 464.30644647032716L326.25658463283577 464.30644647032716Q337.2751940041684 464.30644647032716 344.15080625188 459.5464072219114Q351.02641849959156 454.7863679734957 351.02641849959156 444.82554510181103L351.02641849959156 444.82554510181103Q351.02641849959156 435.3054666049796 346.5602088344114 430.4572784815932Q342.1233821275548 425.5797073998833 333.24972871384153 419.8794134851139L333.24972871384153 419.8794134851139L319.9098656349481 411.41712148793044Q312.7110408456775 406.74523111448536 306.8050662226432 401.897042991099Q300.86970864128534 397.0194719093891 297.2849877258118 390.14385966167754Q293.67088385201464 383.2682474139659 293.67088385201464 372.6903824174866L293.67088385201464 372.6903824174866Q293.67088385201464 359.58558300518166 300.4583472247556 350.2711852166151Q307.21642763917293 340.9567874280486 319.0577598435651 336.0792163463386Q330.9284750062808 331.23102822295226 346.1488474178816 331.23102822295226L346.1488474178816 331.23102822295226Q360.31143332983453 331.23102822295226 367.30457741084035 333.02338868068904Q374.2977214918461 334.8157491384258 376.50144336611265 337.9891086373696Q378.7345481987027 341.16246813631346 378.7345481987027 345.3936141349052L378.7345481987027 345.3936141349052Q378.7345481987027 351.328971716263 377.0303366159366 354.3847993819126Q375.35550799149405 357.4700100058858 373.44561570046307 357.4700100058858L373.44561570046307 357.4700100058858Q371.74140411769696 357.4700100058858 369.6258311184011 356.41222350623786Q367.5102581191052 355.35443700658993 363.7198564953668 353.65022542382377L363.7198564953668 353.65022542382377Q360.7521777046878 352.18107750764614 354.287926873506 350.1536533833209Q347.85305900064776 348.15561221731923 340.85991491964194 348.15561221731923L340.85991491964194 348.15561221731923Q331.7511978393403 348.15561221731923 325.5220106747469 352.7981196324407Q319.29282351015354 357.4700100058858 319.29282351015354 366.7550248361287L319.29282351015354 366.7550248361287Q319.29282351015354 375.45238049990064 323.935330925275 380.4181004565812Q328.5778383403965 385.3838204132618 336.4230882127854 389.2036049953238L336.4230882127854 389.2036049953238L348.05873970891264 394.69821820182835Q356.3153509978312 398.4886198255668 363.39664395380765 403.1605101990118Q370.47793690978415 407.8030176141333 374.8266147416701 415.1193742366982Q379.1459096152325 422.4063479009395 379.1459096152325 434.45336081359653L379.1459096152325 434.45336081359653Q379.1459096152325 456.9019409727916 363.7198564953668 469.06648571874285Q348.2644204171775 481.2310304646941 322.2311193425089 481.2310304646941ZM429.3026194735387 481.2310304646941L429.3026194735387 481.2310304646941Q411.3202489795238 481.2310304646941 400.0959588999263 475.5013535916011Q388.87166882032875 469.8010596768317 388.87166882032875 460.69234259653L388.87166882032875 460.69234259653Q388.87166882032875 453.7285814738478 389.9294553199767 450.76090268316887Q390.9872418196246 447.79322389248995 393.54355919377383 447.79322389248995L393.54355919377383 447.79322389248995Q395.2183878182164 447.79322389248995 398.8324916920135 450.32015830831557Q402.41721260748704 452.87647568246473 407.61799623075603 456.0498351814085Q412.7893968957015 459.2231946803523 419.25364772688334 461.75012909617794Q425.68851559974155 464.30644647032716 433.298701805542 464.30644647032716L433.298701805542 464.30644647032716Q444.3173111768747 464.30644647032716 451.1929234245862 459.5464072219114Q458.0685356722978 454.7863679734957 458.0685356722978 444.82554510181103L458.0685356722978 444.82554510181103Q458.0685356722978 435.3054666049796 453.6317089654412 430.4572784815932Q449.16549930026105 425.5797073998833 440.2918458865478 419.8794134851139L440.2918458865478 419.8794134851139L426.9519828076544 411.41712148793044Q419.7825409767073 406.74523111448536 413.8471833953494 401.897042991099Q407.9118258139916 397.0194719093891 404.32710489851803 390.14385966167754Q400.7423839830445 383.2682474139659 400.7423839830445 372.6903824174866L400.7423839830445 372.6903824174866Q400.7423839830445 359.58558300518166 407.5004643974618 350.2711852166151Q414.2585448118792 340.9567874280486 426.1292599745949 336.0792163463386Q437.97059217898703 331.23102822295226 453.1909645905879 331.23102822295226L453.1909645905879 331.23102822295226Q467.38293346086436 331.23102822295226 474.3466945835466 333.02338868068904Q481.33983866455236 334.8157491384258 483.5435605388189 337.9891086373696Q485.77666537140897 341.16246813631346 485.77666537140897 345.3936141349052L485.77666537140897 345.3936141349052Q485.77666537140897 351.328971716263 484.07245378864286 354.3847993819126Q482.3976251642003 357.4700100058858 480.4877328731693 357.4700100058858L480.4877328731693 357.4700100058858Q478.7835212904032 357.4700100058858 476.66794829110734 356.41222350623786Q474.5523752918115 355.35443700658993 470.76197366807304 353.65022542382377L470.76197366807304 353.65022542382377Q467.7942948773941 352.18107750764614 461.33004404621227 350.1536533833209Q454.895176173354 348.15561221731923 447.90203209234824 348.15561221731923L447.90203209234824 348.15561221731923Q438.8226979703701 348.15561221731923 432.56412784745316 352.7981196324407Q426.3349406828597 357.4700100058858 426.3349406828597 366.7550248361287L426.3349406828597 366.7550248361287Q426.3349406828597 375.45238049990064 430.97744809798127 380.4181004565812Q435.6493384714263 385.3838204132618 443.4652053854916 389.2036049953238L443.4652053854916 389.2036049953238L455.1008568816189 394.69821820182835Q463.35746817053746 398.4886198255668 470.43876112651395 403.1605101990118Q477.52005408249033 407.8030176141333 481.8687319143763 415.1193742366982Q486.1880267879387 422.4063479009395 486.1880267879387 434.45336081359653L486.1880267879387 434.45336081359653Q486.1880267879387 456.9019409727916 470.76197366807304 469.06648571874285Q455.30653758988376 481.2310304646941 429.3026194735387 481.2310304646941Z " fill="#ffffff" transform="matrix(0.5751301157000037,0,0,0.5751301157000037,0,66.36430826885955)"/><path d="M665.315708352982 447.46508113513926L665.315708352982 447.46508113513926Q651.3812831562483 447.46508113513926 642.706420411223 443.0251907538271Q634.0087889975755 438.60806904113696 634.0087889975755 431.54978176828166L634.0087889975755 431.54978176828166Q634.0087889975755 426.1536073048407 634.8284610679716 423.8539717740072Q635.6481331383677 421.5543362431737 637.6290073084915 421.5543362431737L637.6290073084915 421.5543362431737Q638.926821419952 421.5543362431737 641.727367660472 423.51244174467547Q644.50514523237 425.4933159147994 648.5124309098619 427.9523321259877Q652.5424852559761 430.411348337176 657.5288236842191 432.36945383867777Q662.537930781084 434.3503280088017 668.4350159542116 434.3503280088017L668.4350159542116 434.3503280088017Q676.9732666875043 434.3503280088017 682.3011351450789 430.66180369201925Q687.6290036026535 426.9732793752368 687.6290036026535 419.2547007123402L687.6290036026535 419.2547007123402Q687.6290036026535 411.8776520787753 684.1681659720923 408.12082175612653Q680.730097010153 404.3412227648556 673.8539590862747 399.92410105216555L673.8539590862747 399.92410105216555L663.516983531835 393.36672448899674Q657.938659719417 389.74650617808066 653.3621573263722 385.98967585543187Q648.7628862647052 382.21007686416095 645.9851086928073 376.88220840658636Q643.1845624522873 371.5543399490117 643.1845624522873 363.3576192450507L643.1845624522873 363.3576192450507Q643.1845624522873 353.20279303958796 648.4441249039955 345.9851250863778Q653.6809186870819 338.7674571331678 662.8566921417937 334.9878581418968Q672.0552342651276 331.2310278192481 683.8494046113826 331.2310278192481L683.8494046113826 331.2310278192481Q694.8239028872415 331.2310278192481 700.2428460193046 332.619916605197Q705.6617891513677 334.008805391146 707.3694392980262 336.46782160233425Q709.0998581133069 338.9268378135225 709.0998581133069 342.20552609510696L709.0998581133069 342.20552609510696Q709.0998581133069 346.80479715677393 707.7792753332243 349.1727386934738Q706.4814612217638 351.56344889879574 705.0014977613264 351.56344889879574L705.0014977613264 351.56344889879574Q703.6809149812439 351.56344889879574 702.0415708404516 350.74377682839963Q700.4022266996594 349.9241047580035 697.4650684474068 348.60352197792093L697.4650684474068 348.60352197792093Q695.1654329165733 347.46508854681525 690.1563258197082 345.8940504118894Q685.1699873914653 344.34578094558566 679.7510442594022 344.34578094558566L679.7510442594022 344.34578094558566Q672.6927569865469 344.34578094558566 667.8657992386587 347.9432305878796Q663.0388414907707 351.56344889879574 663.0388414907707 358.7583481833837L663.0388414907707 358.7583481833837Q663.0388414907707 365.4978740955294 666.6362911330646 369.34577909266665Q670.2337407753586 373.19368408980387 676.312975297463 376.1536110106787L676.312975297463 376.1536110106787L685.32936807182 380.41135204301395Q691.727363954634 383.3485102952667 697.2146130925635 386.96872860618276Q702.7018622304929 390.5661782484768 706.0716251865658 396.2355767353831Q709.4186194740165 401.88220655366734 709.4186194740165 411.217360688734L709.4186194740165 411.217360688734Q709.4186194740165 428.612623516029 697.4650684474068 438.0388523255841Q685.4887487521748 447.46508113513926 665.315708352982 447.46508113513926ZM736.9687085067743 447.9432231762037L725.4932995212289 447.9432231762037Q722.6927532807089 447.9432231762037 721.8730812103128 444.7556095691077Q721.0534091399168 441.54522729338964 721.0534091399168 438.1071583314505L721.0534091399168 438.1071583314505Q721.0534091399168 432.210073158323 721.6453945240917 427.610802096656Q722.2146112396445 423.0342997036111 722.8749026296857 417.4559758911932L722.8749026296857 417.4559758911932L728.7719878028133 364.8375827054881L740.2473967883586 364.8375827054881Q743.5260850699431 364.8375827054881 744.5051378206939 368.4350323477821Q745.4841905714449 372.0552506586982 745.4841905714449 376.6317530517431L745.4841905714449 376.6317530517431Q745.4841905714449 378.9313885825766 745.1654292107353 381.4814794682533Q744.8238991814036 384.00880168530796 744.1863764599843 389.26836413701625L744.1863764599843 389.26836413701625L741.0670688587547 415.9760124307558Q740.0880161080039 424.5142631640485 739.2683440376078 430.2519676568212Q738.4486719672117 435.9896721495939 737.9477612575251 440.0880325015744Q737.4468505478386 444.1863928535549 736.9687085067743 447.9432231762037L736.9687085067743 447.9432231762037ZM739.9058667590269 355.4796599017993L739.9058667590269 355.4796599017993Q735.3293643659821 355.4796599017993 731.9596014099092 352.38312096919185Q728.6126071224585 349.26381336796226 728.6126071224585 344.1864002652309L728.6126071224585 344.1864002652309Q728.6126071224585 338.1071657431264 732.5288181254621 334.76017145567573Q736.4677977970878 331.39040849960287 741.5452108998192 331.39040849960287L741.5452108998192 331.39040849960287Q746.303862641841 331.39040849960287 749.514244917559 334.16818607150077Q752.701858524655 336.96873231202073 752.701858524655 342.54705612443865L752.701858524655 342.54705612443865Q752.701858524655 348.10261126823445 748.922259533384 351.7911355850169Q745.1654292107353 355.4796599017993 739.9058667590269 355.4796599017993ZM777.1326399561831 447.62446181549404L765.6572309706377 447.62446181549404Q762.6973040497629 447.62446181549404 761.0579599089707 444.00424350457797Q759.4186157681785 440.40679386228396 759.5779964485333 435.64814212026215L759.5779964485333 435.64814212026215Q759.7601457975103 430.0698183078443 760.5798178679063 422.3740083135698Q761.3994899383024 414.67819831929535 762.2191620086985 407.1190003367535L762.2191620086985 407.1190003367535L766.7956644017435 368.4350323477821Q767.7747171524943 361.05798371421724 767.2965751114299 355.3202792214445Q766.7956644017435 349.58257472867183 765.9759923313474 345.1654530159817Q765.1563202609512 340.7255626346696 765.1563202609512 337.62902370206206L765.1563202609512 337.62902370206206Q765.1563202609512 335.80753021229293 768.0251725073375 334.41864142634404Q770.8940247537239 333.02975264039503 774.6736237449949 332.1190058955105Q778.4304540676436 331.2310278192481 781.0716196278088 331.2310278192481L781.0716196278088 331.2310278192481Q783.8493971997067 331.2310278192481 785.9896520501853 335.2383134967401Q788.107138232042 339.2683678428543 788.107138232042 344.50516162594045L788.107138232042 344.50516162594045Q788.107138232042 345.6435950570461 787.7883768713324 350.9031575087545Q787.4468468420007 356.1399512918406 786.4677940912497 362.8567085353642L786.4677940912497 362.8567085353642L781.2310003081635 400.56162377358476Q779.5916561673714 412.3785627884618 778.93136477733 424.10442712885043Q778.2710733872888 435.807522800617 777.1326399561831 447.62446181549404L777.1326399561831 447.62446181549404ZM822.5333651886781 447.9432231762037L822.5333651886781 447.9432231762037Q815.6572272647998 447.9432231762037 811.4677922383307 442.7747353989838Q807.3011258804839 437.62901629038606 806.2993044611109 427.79295144563287L806.2993044611109 427.79295144563287L802.701854818817 391.06708895816325Q802.3830934581073 387.2874899668924 801.6317273935775 383.4395849697551Q800.9031299976699 379.5916799726179 799.7419278979421 377.29204444178436L799.7419278979421 377.29204444178436Q798.6034944668364 374.99240891095087 797.7838223964403 374.10443083468846Q796.9641503260442 373.19368408980387 796.9641503260442 371.8731013097213L796.9641503260442 371.8731013097213Q796.9641503260442 370.5752871982608 798.8539498216797 369.34577909266665Q800.7437493173152 368.11627098707254 803.5215268892131 367.04614356183316Q806.2993044611109 365.9760161365938 809.099850701631 365.40679942104094Q811.8776282735288 364.8375827054881 813.6763530946758 364.8375827054881L813.6763530946758 364.8375827054881Q816.6362800155506 364.8375827054881 818.4350048366977 367.9568903067177Q820.2337296578446 371.05342923932517 821.2355510772176 380.2519713626592L821.2355510772176 380.2519713626592L825.493292109553 421.8730976038833Q825.9714341506173 426.63174934590506 827.2009422562114 429.0907655570934Q828.4304503618056 431.54978176828166 830.7300858926391 431.54978176828166L830.7300858926391 431.54978176828166Q832.5288107137861 431.54978176828166 835.7391929895042 429.2501462374482Q838.9268065966 426.9732793752368 842.2965695526728 421.5543362431737Q845.6435638401236 416.1353931111106 847.9431993709571 407.1190003367535Q850.2428349017906 398.10260756239643 850.2428349017906 384.6690930753493L850.2428349017906 384.6690930753493Q850.2428349017906 380.7301134037236 849.1727074765513 378.612627221867Q848.102580051312 376.4723723713883 848.102580051312 374.8330282305961L848.102580051312 374.8330282305961Q848.102580051312 373.3530647701587 849.924073541081 371.5543399490117Q851.722798362228 369.7556151278647 854.4322699282596 368.27565166742727Q857.1189728256691 366.7956882069899 859.8284443917006 365.816635456239Q862.5379159577321 364.8375827054881 864.1772600985244 364.8375827054881L864.1772600985244 364.8375827054881Q866.1353656000261 364.8375827054881 868.11623977015 365.9760161365938Q870.0743452716519 367.1372182363216 870.0743452716519 371.7137206293665L870.0743452716519 371.7137206293665Q870.0743452716519 379.5916799726179 867.7747097408184 389.6782001722143Q865.4978428786069 399.74195170318865 861.308407852138 409.91954657727354Q857.1189728256691 420.0743727827363 851.2218876525416 428.7720041963838Q845.3248024794141 437.44686694140916 838.107134526204 442.70642939311745Q830.8894665729939 447.9432231762037 822.5333651886781 447.9432231762037ZM900.5615925566623 447.9432231762037L900.5615925566623 447.9432231762037Q887.9477501400112 447.9432231762037 881.0716122161328 439.9969578270859Q874.1727056236323 432.0506924779682 874.1727056236323 418.1162672812345L874.1727056236323 418.1162672812345Q874.1727056236323 406.48147761533437 877.4513939052167 396.80479345093596Q880.7300821868012 387.12810928653755 886.6271673599286 379.91044133332747Q892.5470212016781 372.6927733801174 900.4932865507959 368.7765623771138Q908.4395518999137 364.8375827054881 917.7747060349803 364.8375827054881L917.7747060349803 364.8375827054881Q928.9313536598162 364.8375827054881 934.8284388329436 369.5962344475099Q940.7255240060712 374.3321175209096 940.7255240060712 383.18912961491185L940.7255240060712 383.18912961491185Q940.7255240060712 392.20552238926894 934.7601328270773 398.92227963279254Q928.7719729794613 405.66180554493826 917.5470193487591 410.3976886183379Q906.2992970494349 415.1563403603597 890.7255277119091 418.4350286419441L890.7255277119091 418.4350286419441L888.6080415300524 408.59896379719095Q897.6244343044096 407.46053036608527 905.1608636183292 404.65998412556524Q912.6972929322488 401.88220655366734 917.2965639939159 397.214629486134Q921.8730663869609 392.5470524186007 921.8730663869609 386.14905653578666L921.8730663869609 386.14905653578666Q921.8730663869609 381.7091661544745 920.1654162403023 379.4322992922631Q918.4349974250216 377.13266376142957 914.0178757123316 377.13266376142957L914.0178757123316 377.13266376142957Q907.301118468808 377.13266376142957 902.6107727326524 382.05069618380617Q897.9431956651191 386.96872860618276 895.5752541284193 394.82391928081205Q893.1845439230973 402.70187862406345 893.1845439230973 411.55889071806575L893.1845439230973 411.55889071806575Q893.1845439230973 423.51244174467547 896.8730682398799 427.54249609078965Q900.5615925566623 431.54978176828166 907.7792605098724 431.54978176828166L907.7792605098724 431.54978176828166Q915.315689823792 431.54978176828166 920.9850883106984 429.1818402315818Q926.6317181289826 426.7911300262599 930.7300784809631 424.1727331347168L930.7300784809631 424.1727331347168Q932.0506612610458 423.3530610643207 933.0297140117966 422.8749190232563Q934.0087667625475 422.3740083135698 934.6690581525887 422.3740083135698L934.6690581525887 422.3740083135698Q935.4887302229848 422.3740083135698 935.9896409326715 423.0342997036111Q936.4677829737358 423.69459109365243 936.4677829737358 424.5142631640485L936.4677829737358 424.5142631640485Q936.4677829737358 427.4514214163012 933.8493860821927 431.3904010879269Q931.2309891906497 435.3293807595526 926.3812627741394 439.0862110822014Q921.5543050262512 442.8658100734723 914.9969284630824 445.415900959149Q908.4395518999137 447.9432231762037 900.5615925566623 447.9432231762037ZM967.4559409684327 441.38584661303486L967.4559409684327 441.38584661303486L963.516961296807 416.63630382079714Q969.5961958189115 400.90315380291645 975.903117027237 389.3366701428826Q982.2100382355626 377.7929551514709 988.7674147987314 371.3949592686569Q995.3247913619001 364.9969633858429 1002.0415486054236 364.9969633858429L1002.0415486054236 364.9969633858429Q1005.8211475966946 364.9969633858429 1007.4604917374867 367.36490492254273Q1009.0998358782789 369.7556151278647 1009.0998358782789 373.3530647701587L1009.0998358782789 373.3530647701587Q1009.0998358782789 376.6317530517431 1008.3484698137491 379.6599859784842Q1007.6198724178415 382.7109875738475 1006.2309836318926 384.6690930753493Q1004.8420948459437 386.6271985768511 1002.8612206758197 386.6271985768511L1002.8612206758197 386.6271985768511Q1001.0624958546729 386.6271985768511 998.8539349983276 385.4887651457454Q996.6453741419826 384.35033171463965 992.8657751507118 384.35033171463965L992.8657751507118 384.35033171463965Q990.4067589395235 384.35033171463965 986.6271599482526 389.42774481737104Q982.8703296256039 394.5051579201025 978.8402752794897 402.9523339789067Q974.8329896019976 411.3995100377109 971.713682000768 421.4632615686852Q968.5943743995384 431.54978176828166 967.4559409684327 441.38584661303486ZM953.6808964520538 447.62446181549404L953.6808964520538 447.62446181549404Q951.5634102701973 447.62446181549404 950.4932828449579 446.8730957509643Q949.4231554197186 446.14449835505667 949.3320807452301 443.0251907538271Q949.2637747393638 439.9058831525975 950.08344680976 433.0297452287191L950.08344680976 433.0297452287191L957.7792568040344 364.8375827054881L969.2546657895797 364.8375827054881Q971.713682000768 364.8375827054881 973.694556170892 368.4350323477821Q975.6526616723937 372.0552506586982 975.6526616723937 376.6317530517431L975.6526616723937 376.6317530517431Q975.6526616723937 378.7720079022218 974.4231535667996 383.28020428940033Q973.1936454612054 387.7884006765789 971.5543013204133 392.77473910482183Q969.9149571796211 397.78384620168686 968.5943743995384 401.5634451929577L968.5943743995384 401.5634451929577L964.3366333672031 414.9969596800049L970.4158678893076 414.017906929254L967.4559409684327 441.38584661303486Q967.296560288078 443.0251907538271 965.497835466931 444.2546988594212Q963.6763419771619 445.48420696501535 961.308400440462 446.2355730295451Q958.9404589037622 446.9641704254527 956.8002040532834 447.28293178616235Q954.6599492028048 447.62446181549404 953.6808964520538 447.62446181549404ZM1040.5661359140404 447.46508113513926L1040.5661359140404 447.46508113513926Q1026.6317107173068 447.46508113513926 1017.9568479722813 443.0251907538271Q1009.2592165586337 438.60806904113696 1009.2592165586337 431.54978176828166L1009.2592165586337 431.54978176828166Q1009.2592165586337 426.1536073048407 1010.0788886290298 423.8539717740072Q1010.898560699426 421.5543362431737 1012.8566662009277 421.5543362431737L1012.8566662009277 421.5543362431737Q1014.1772489810104 421.5543362431737 1016.9550265529082 423.51244174467547Q1019.7555727934283 425.4933159147994 1023.7628584709204 427.9523321259877Q1027.7929128170344 430.411348337176 1032.7792512452775 432.36945383867777Q1037.7883583421426 434.3503280088017 1043.68544351527 434.3503280088017L1043.68544351527 434.3503280088017Q1052.2009255799403 434.3503280088017 1057.5287940375151 430.66180369201925Q1062.85666249509 426.9732793752368 1062.85666249509 419.2547007123402L1062.85666249509 419.2547007123402Q1062.85666249509 411.8776520787753 1059.4185935331507 408.12082175612653Q1055.9805245712114 404.3412227648556 1049.104386647333 399.92410105216555L1049.104386647333 399.92410105216555L1038.7674110928933 393.36672448899674Q1033.1890872804754 389.74650617808066 1028.6125848874306 385.98967585543187Q1024.0133138257634 382.21007686416095 1021.2355362538657 376.88220840658636Q1018.4349900133457 371.5543399490117 1018.4349900133457 363.3576192450507L1018.4349900133457 363.3576192450507Q1018.4349900133457 353.20279303958796 1023.694552465054 345.9851250863778Q1028.93134624814 338.7674571331678 1038.1071197028518 334.9878581418968Q1047.2828931575639 331.2310278192481 1059.099832172441 331.2310278192481L1059.099832172441 331.2310278192481Q1070.0743304482999 331.2310278192481 1075.4932735803632 332.619916605197Q1080.889448043804 334.008805391146 1082.6198668590846 336.46782160233425Q1084.3502856743653 338.9268378135225 1084.3502856743653 342.20552609510696L1084.3502856743653 342.20552609510696Q1084.3502856743653 346.80479715677393 1083.0297028942828 349.1727386934738Q1081.7091201142 351.56344889879574 1080.2519253223847 351.56344889879574L1080.2519253223847 351.56344889879574Q1078.931342542302 351.56344889879574 1077.2919984015098 350.74377682839963Q1075.6526542607178 349.9241047580035 1072.6927273398428 348.60352197792093L1072.6927273398428 348.60352197792093Q1070.4158604776317 347.46508854681525 1065.4067533807665 345.8940504118894Q1060.3976462839014 344.34578094558566 1055.0014718204607 344.34578094558566L1055.0014718204607 344.34578094558566Q1047.9431845476051 344.34578094558566 1043.116226799717 347.9432305878796Q1038.2665003832067 351.56344889879574 1038.2665003832067 358.7583481833837L1038.2665003832067 358.7583481833837Q1038.2665003832067 365.4978740955294 1041.886718694123 369.34577909266665Q1045.484168336417 373.19368408980387 1051.5634028585214 376.1536110106787L1051.5634028585214 376.1536110106787L1060.5797956328784 380.41135204301395Q1066.9550228470703 383.3485102952667 1072.4650406536218 386.96872860618276Q1077.9522897915513 390.5661782484768 1081.299284079002 396.2355767353831Q1084.669047035075 401.88220655366734 1084.669047035075 411.217360688734L1084.669047035075 411.217360688734Q1084.669047035075 428.612623516029 1072.6927273398428 438.0388523255841Q1060.7391763132332 447.46508113513926 1040.5661359140404 447.46508113513926ZM1129.7510109068603 447.9432231762037L1129.7510109068603 447.9432231762037Q1122.6927236340048 447.9432231762037 1116.8867131353659 446.0534236805682Q1111.0579339681049 444.1863928535549 1106.9595736161243 442.20551868343097L1106.9595736161243 442.20551868343097L1112.2191360678326 426.1536073048407Q1116.6362577805226 429.0907655570934 1121.4632155284107 431.2310204075721Q1126.312941944921 433.34850658942867 1130.5706829772562 434.50970868915647Q1134.8284240095918 435.64814212026215 1137.4468209011347 435.64814212026215L1137.4468209011347 435.64814212026215Q1142.5470026724884 435.64814212026215 1146.6453630244687 431.1399457330836Q1150.7437233764492 426.63174934590506 1153.111664913149 418.59440932229893Q1155.479606449849 410.5798379673148 1155.479606449849 400.4022430932299L1155.479606449849 400.4022430932299Q1155.479606449849 390.90770827780847 1154.0224116580334 385.98967585543187Q1152.542448197596 381.07164343305527 1149.5825212767213 381.07164343305527L1149.5825212767213 381.07164343305527Q1147.6244157752196 381.07164343305527 1142.1371666372902 385.5798398202338Q1136.6271488307386 390.08803620741236 1129.0224135109527 401.3129898381145Q1121.3949095225444 412.5379434688166 1112.856658789252 432.7109838680095L1112.856658789252 432.7109838680095L1109.2592091469578 418.1162672812345Q1118.5943632820245 397.4650848409773 1126.882158660474 385.8986011809434Q1135.1699540389232 374.3321175209096 1142.6153086783547 369.6645404533763Q1150.083431986408 364.9969633858429 1156.9595699102863 364.9969633858429L1156.9595699102863 364.9969633858429Q1167.1371647843712 364.9969633858429 1170.5752337463105 372.6927733801174Q1174.0133027082497 380.41135204301395 1174.0133027082497 393.36672448899674L1174.0133027082497 393.36672448899674Q1174.0133027082497 409.2592551872322 1168.116217535122 421.5543362431737Q1162.2191323619945 433.8494172991152 1152.2009181682647 440.9077045719705Q1142.2054726431566 447.9432231762037 1129.7510109068603 447.9432231762037ZM1111.5588446777913 481.2310167017341L1100.083435692246 481.2310167017341Q1097.4650388007028 481.2310167017341 1095.8940006657767 479.02245584538906Q1094.3457311994734 476.7911263204219 1093.7765144839204 473.8539680681692Q1093.1845290997453 470.8940411472944 1093.1845290997453 468.4350249361061L1093.1845290997453 468.4350249361061Q1093.1845290997453 465.15633665452174 1093.526059129077 460.3976849124999Q1093.8448204897868 455.66180183910024 1094.5051118798278 449.1044252759315L1094.5051118798278 449.1044252759315L1104.0224153638715 364.8375827054881L1115.497824349417 364.8375827054881Q1117.7746912116286 364.8375827054881 1119.1863486661996 366.7956882069899Q1120.5752374521485 368.7765623771138 1121.2355288421895 371.4632652745232Q1121.873051563609 374.17273684055476 1121.873051563609 376.6317530517431L1121.873051563609 376.6317530517431Q1121.873051563609 379.7510606529727 1120.0743267424618 385.80752650645496Q1118.2756019213148 391.88676102855936 1115.31567500044 401.5634451929577L1115.31567500044 401.5634451929577L1111.5588446777913 414.017906929254L1116.4768771001677 414.017906929254L1114.0178608889796 436.1490528299487L1112.5378974285422 438.26653901180526L1111.5588446777913 481.2310167017341ZM1198.922226180842 447.9432231762037L1198.922226180842 447.9432231762037Q1189.7464527261302 447.9432231762037 1185.8074730545045 440.49786853677244Q1181.891262051501 433.0297452287191 1181.891262051501 419.5962307416719L1181.891262051501 419.5962307416719Q1181.891262051501 407.61991104644005 1185.3976370193063 397.62446552133207Q1188.926780655734 387.6290199962241 1195.0060151778384 380.3202773685255Q1201.0624810313207 373.0343034094491 1209.099821054927 369.00424906333495Q1217.1371610785332 364.9969633858429 1226.1535538528904 364.9969633858429L1226.1535538528904 364.9969633858429Q1233.1890724571235 364.9969633858429 1239.0178516243845 366.8867628814784Q1244.823862123024 368.7765623771138 1248.9222224750042 370.7346678786156L1248.9222224750042 370.7346678786156L1244.1863394016045 387.94778135693366Q1239.7464490202924 384.98785443605885 1234.2591998823627 382.5288382248706Q1228.7719507444335 380.06982201368226 1224.1043736769 378.6809332277333Q1219.4140279407445 377.29204444178436 1217.1371610785332 377.29204444178436L1217.1371610785332 377.29204444178436Q1212.5378900168662 377.29204444178436 1208.689985019729 381.80024082896296Q1204.8420800225917 386.30843721614144 1202.6107504976244 394.2547025652592Q1200.4021896412796 402.2009679143769 1200.4021896412796 412.5379434688166L1200.4021896412796 412.5379434688166Q1200.4021896412796 422.0552469528602 1201.7910784272285 426.9732793752368Q1203.2027358817995 431.8913117976134 1206.299274814407 431.8913117976134L1206.299274814407 431.8913117976134Q1208.4395296648859 431.8913117976134 1213.516942767617 427.0415853811031Q1218.5943558703484 422.214627633215 1225.8120238235585 410.89859932802443Q1233.0296917767687 399.58257102283386 1241.067031800375 380.2519713626592L1241.067031800375 380.2519713626592L1245.6435341934198 394.82391928081205Q1236.8092907680395 414.4960489703184 1228.7719507444335 426.1536073048407Q1220.734610720827 437.7883969707409 1213.3575620872623 442.8658100734723Q1205.9805134536973 447.9432231762037 1198.922226180842 447.9432231762037ZM1249.5825138650457 446.9641704254527L1238.1071048795002 446.9641704254527Q1234.8284165979155 446.9641704254527 1234.1681252078743 443.7765568183568Q1233.530602486455 440.56617454263875 1233.530602486455 436.9687249003448L1233.530602486455 436.9687249003448Q1233.530602486455 434.1681786598248 1234.2591998823627 430.0698183078443Q1234.9877972782706 425.9714579558638 1236.1489993779983 421.2355748824641Q1237.2874328091038 416.4769231404423 1238.6080155891866 411.8776520787753L1238.6080155891866 411.8776520787753L1242.2054652314805 399.58257102283386L1237.4468134894587 395.32482999049853L1241.3857931610846 370.5752871982608Q1246.6453556127926 369.7556151278647 1250.652641290285 368.4350323477821Q1254.6599269677768 367.1372182363216 1257.3693985338086 366.1353968169486Q1260.07887009984 365.1563440661977 1261.2173035309456 365.1563440661977L1261.2173035309456 365.1563440661977Q1263.0387970207148 365.1563440661977 1263.0387970207148 367.1372182363216L1263.0387970207148 367.1372182363216Q1263.0387970207148 367.9568903067177 1260.9896168447244 374.10443083468846Q1258.9404366687345 380.2519713626592 1256.5497264634123 389.74650617808066Q1254.1817849267122 399.26380966212423 1253.0205828269845 410.3976886183379L1253.0205828269845 410.3976886183379L1249.5825138650457 446.9641704254527ZM1289.5870646340995 441.38584661303486L1289.5870646340995 441.38584661303486L1285.648084962474 416.63630382079714Q1291.7273194845784 400.90315380291645 1298.034240692904 389.3366701428826Q1304.3411619012295 377.7929551514709 1310.898538464398 371.3949592686569Q1317.4559150275668 364.9969633858429 1324.1726722710905 364.9969633858429L1324.1726722710905 364.9969633858429Q1327.9522712623616 364.9969633858429 1329.5916154031534 367.36490492254273Q1331.2309595439456 369.7556151278647 1331.2309595439456 373.3530647701587L1331.2309595439456 373.3530647701587Q1331.2309595439456 376.6317530517431 1330.479593479416 379.6599859784842Q1329.7509960835082 382.7109875738475 1328.3621072975593 384.6690930753493Q1326.9732185116104 386.6271985768511 1324.9923443414864 386.6271985768511L1324.9923443414864 386.6271985768511Q1323.1936195203393 386.6271985768511 1320.9850586639946 385.4887651457454Q1318.7764978076493 384.35033171463965 1314.9968988163787 384.35033171463965L1314.9968988163787 384.35033171463965Q1312.5378826051901 384.35033171463965 1308.7582836139195 389.42774481737104Q1305.0014532912705 394.5051579201025 1300.9713989451566 402.9523339789067Q1296.9641132676643 411.3995100377109 1293.8448056664347 421.4632615686852Q1290.725498065205 431.54978176828166 1289.5870646340995 441.38584661303486ZM1275.8120201177207 447.62446181549404L1275.8120201177207 447.62446181549404Q1273.694533935864 447.62446181549404 1272.6244065106248 446.8730957509643Q1271.5542790853856 446.14449835505667 1271.463204410897 443.0251907538271Q1271.3948984050303 439.9058831525975 1272.2145704754266 433.0297452287191L1272.2145704754266 433.0297452287191L1279.910380469701 364.8375827054881L1291.3857894552466 364.8375827054881Q1293.8448056664347 364.8375827054881 1295.8256798365587 368.4350323477821Q1297.7837853380606 372.0552506586982 1297.7837853380606 376.6317530517431L1297.7837853380606 376.6317530517431Q1297.7837853380606 378.7720079022218 1296.5542772324661 383.28020428940033Q1295.324769126872 387.7884006765789 1293.6854249860799 392.77473910482183Q1292.046080845288 397.78384620168686 1290.725498065205 401.5634451929577L1290.725498065205 401.5634451929577L1286.46775703287 414.9969596800049L1292.5469915549743 414.017906929254L1289.5870646340995 441.38584661303486Q1289.4276839537447 443.0251907538271 1287.6289591325976 444.2546988594212Q1285.807465642829 445.48420696501535 1283.4395241061288 446.2355730295451Q1281.0715825694288 446.9641704254527 1278.9313277189503 447.28293178616235Q1276.7910728684715 447.62446181549404 1275.8120201177207 447.62446181549404ZM1391.7273120729024 447.12355110580756L1391.7273120729024 447.12355110580756Q1388.107093761986 447.12355110580756 1384.3502634393371 443.68548214386834Q1380.5706644480665 440.2474131819292 1376.9732148057724 434.57801469502283Q1373.3529964948566 428.9313848767386 1370.1653828877606 422.0552469528602Q1366.9550006120426 415.1563403603597 1364.678133749831 408.12082175612653L1364.678133749831 408.12082175612653Q1364.0178423597895 406.1399475860026 1363.1981702893936 403.3621700141047Q1362.3784982189977 400.56162377358476 1362.3784982189977 397.94322688204164L1362.3784982189977 397.94322688204164Q1362.3784982189977 396.14450206089464 1362.9477149345503 394.5962325945909Q1363.5169316501033 393.02519445966504 1364.678133749831 391.22646963851804L1364.678133749831 391.22646963851804Q1367.9568220314154 385.98967585543187 1372.6243990989487 381.23102411341006Q1377.291976166482 376.4723723713883 1382.8702999788998 372.78384805460587Q1388.448623791318 369.0953237378234 1394.3457089644453 367.04614356183316Q1400.2427941375727 364.9969633858429 1405.8211179499908 364.9969633858429L1405.8211179499908 364.9969633858429Q1410.2382396626808 364.9969633858429 1411.6271284486297 367.1372182363216Q1413.0387859032007 369.2547044181782 1413.0387859032007 373.0343034094491L1413.0387859032007 373.0343034094491Q1413.0387859032007 376.6317530517431 1412.1280391583164 379.3412246177746Q1411.2172924134316 382.05069618380617 1409.9194783019711 383.5306596442436Q1408.5988955218886 384.98785443605885 1407.460462090783 384.98785443605885L1407.460462090783 384.98785443605885Q1405.3202072403042 384.98785443605885 1402.5424296684064 383.6900403245984Q1399.7418834278865 382.36945754451574 1395.8256724248827 382.36945754451574L1395.8256724248827 382.36945754451574Q1389.0861465127368 382.36945754451574 1383.4395166944528 386.7182732513395Q1377.7928868761687 391.06708895816325 1374.6735792749391 396.3038827412495L1374.6735792749391 396.3038827412495L1376.3129234157313 389.26836413701625Q1383.3484420199643 408.12082175612653 1389.2682958617138 417.615356571548Q1395.1653810348416 427.1326600555916 1399.4231220671768 431.54978176828166L1399.4231220671768 431.54978176828166Q1402.2008996390746 434.3503280088017 1404.3411544895534 435.39768676541894Q1406.4814093400319 436.46781419065826 1406.4814093400319 438.1071583314505L1406.4814093400319 438.1071583314505Q1406.4814093400319 440.2474131819292 1403.7719377740004 442.2965933579194Q1401.062466207969 444.34577353390966 1397.6243972460297 445.7346623198586Q1394.1863282840905 447.12355110580756 1391.7273120729024 447.12355110580756ZM1353.5214861249951 447.62446181549404L1342.0460771394496 447.62446181549404Q1339.0861502185749 447.62446181549404 1337.4468060777826 444.00424350457797Q1335.8074619369904 440.40679386228396 1335.9896112859674 435.64814212026215L1335.9896112859674 435.64814212026215Q1336.1489919663222 430.0698183078443 1336.9686640367186 422.3740083135698Q1337.7883361071144 414.67819831929535 1338.6080081775108 407.1190003367535L1338.6080081775108 407.1190003367535L1343.1845105705556 368.4350323477821Q1344.1863319899285 361.05798371421724 1343.6854212802418 355.3202792214445Q1343.1845105705556 349.58257472867183 1342.3648385001593 345.1654530159817Q1341.5451664297634 340.7255626346696 1341.5451664297634 337.62902370206206L1341.5451664297634 337.62902370206206Q1341.5451664297634 335.80753021229293 1344.4140186761497 334.41864142634404Q1347.282870922536 333.02975264039503 1351.062469913807 332.1190058955105Q1354.8420689050777 331.2310278192481 1357.4604657966206 331.2310278192481L1357.4604657966206 331.2310278192481Q1360.2382433685189 331.2310278192481 1362.3784982189977 335.2383134967401Q1364.495984400854 339.2683678428543 1364.495984400854 344.50516162594045L1364.495984400854 344.50516162594045Q1364.495984400854 345.6435950570461 1364.1772230401443 350.9031575087545Q1363.8584616794346 356.1399512918406 1362.8566402600618 362.8567085353642L1362.8566402600618 362.8567085353642L1357.6198464769755 400.56162377358476Q1355.9805023361837 412.3785627884618 1355.3202109461422 424.10442712885043Q1354.6599195561007 435.807522800617 1353.5214861249951 447.62446181549404L1353.5214861249951 447.62446181549404ZM1436.1489845546462 447.62446181549404L1424.673575569101 447.62446181549404Q1421.7136486482264 447.62446181549404 1420.0743045074341 444.00424350457797Q1418.434960366642 440.40679386228396 1418.5943410469968 435.64814212026215L1418.5943410469968 435.64814212026215Q1418.7764903959737 430.0698183078443 1419.5961624663696 422.3740083135698Q1420.415834536766 414.67819831929535 1421.2355066071618 407.1190003367535L1421.2355066071618 407.1190003367535L1425.8120090002067 368.4350323477821Q1426.7910617509574 361.05798371421724 1426.3129197098933 355.3202792214445Q1425.8120090002067 349.58257472867183 1424.9923369298108 345.1654530159817Q1424.1726648594145 340.7255626346696 1424.1726648594145 337.62902370206206L1424.1726648594145 337.62902370206206Q1424.1726648594145 335.80753021229293 1427.0415171058007 334.41864142634404Q1429.910369352187 333.02975264039503 1433.689968343458 332.1190058955105Q1437.4467986661066 331.2310278192481 1440.087964226272 331.2310278192481L1440.087964226272 331.2310278192481Q1442.86574179817 331.2310278192481 1445.0059966486488 335.2383134967401Q1447.123482830505 339.2683678428543 1447.123482830505 344.50516162594045L1447.123482830505 344.50516162594045Q1447.123482830505 345.6435950570461 1446.8047214697958 350.9031575087545Q1446.463191440464 356.1399512918406 1445.4841386897128 362.8567085353642L1445.4841386897128 362.8567085353642L1440.247344906627 400.56162377358476Q1438.6080007658347 412.3785627884618 1437.9477093757932 424.10442712885043Q1437.2874179857522 435.807522800617 1436.1489845546462 447.62446181549404L1436.1489845546462 447.62446181549404ZM1481.230948426432 447.9432231762037L1481.230948426432 447.9432231762037Q1468.5943373411587 447.9432231762037 1461.7181994172802 439.9969578270859Q1454.842061493402 432.0506924779682 1454.842061493402 418.1162672812345L1454.842061493402 418.1162672812345Q1454.842061493402 406.48147761533437 1458.120749774986 396.80479345093596Q1461.3994380565705 387.12810928653755 1467.2965232296979 379.91044133332747Q1473.1936084028257 372.6927733801174 1481.139873751943 368.7765623771138Q1489.0861391010612 364.8375827054881 1498.44406190475 364.8375827054881L1498.44406190475 364.8375827054881Q1509.5779408609637 364.8375827054881 1515.4977947027132 369.5962344475099Q1521.3948798758406 374.3321175209096 1521.3948798758406 383.18912961491185L1521.3948798758406 383.18912961491185Q1521.3948798758406 392.20552238926894 1515.4067200282248 398.92227963279254Q1509.418560180609 405.66180554493826 1498.1936065499067 410.3976886183379Q1486.9686529192045 415.1563403603597 1471.3948835816786 418.4350286419441L1471.3948835816786 418.4350286419441L1469.2546287311998 408.59896379719095Q1478.2710215055567 407.46053036608527 1485.8074508194768 404.65998412556524Q1493.3666488020185 401.88220655366734 1497.9431511950634 397.214629486134Q1502.5424222567303 392.5470524186007 1502.5424222567303 386.14905653578666L1502.5424222567303 386.14905653578666Q1502.5424222567303 381.7091661544745 1500.8120034414496 379.4322992922631Q1499.104353294791 377.13266376142957 1494.664462913479 377.13266376142957L1494.664462913479 377.13266376142957Q1487.9477056699552 377.13266376142957 1483.2801286024219 382.05069618380617Q1478.6125515348886 386.96872860618276 1476.2218413295668 394.82391928081205Q1473.8538997928667 402.70187862406345 1473.8538997928667 411.55889071806575L1473.8538997928667 411.55889071806575Q1473.8538997928667 423.51244174467547 1477.5424241096493 427.54249609078965Q1481.230948426432 431.54978176828166 1488.4486163796419 431.54978176828166L1488.4486163796419 431.54978176828166Q1495.9850456935615 431.54978176828166 1501.631675511846 429.1818402315818Q1507.3010739987521 426.7911300262599 1511.3994343507325 424.1727331347168L1511.3994343507325 424.1727331347168Q1512.6972484621929 423.3530610643207 1513.676301212944 422.8749190232563Q1514.678122632317 422.3740083135698 1515.3156453537363 422.3740083135698L1515.3156453537363 422.3740083135698Q1516.1353174241322 422.3740083135698 1516.6362281338188 423.0342997036111Q1517.1371388435055 423.69459109365243 1517.1371388435055 424.5142631640485L1517.1371388435055 424.5142631640485Q1517.1371388435055 427.4514214163012 1514.49597328334 431.3904010879269Q1511.877576391797 435.3293807595526 1507.0506186439088 439.0862110822014Q1502.2008922273985 442.8658100734723 1495.6435156642297 445.415900959149Q1489.0861391010612 447.9432231762037 1481.230948426432 447.9432231762037Z " fill="#ffffff" transform="matrix(0.5751301157000037,0,0,0.5751301157000037,0,66.36430826885955)"/></g></svg>